<svg version="1.1" id="Layer_1" xmlns="http://www.w3.org/2000/svg" xmlns:xlink="http://www.w3.org/1999/xlink" x="0px" y="0px"
	 width="100%" viewBox="0 0 368 224" enable-background="new 0 0 368 224" xml:space="preserve">
<path fill="#000000" opacity="1.000000" stroke="none" 
	d="
M178.247711,151.105286 
	C172.728683,165.434952 167.215393,179.355377 162.027359,193.395950 
	C160.438965,197.694702 158.342636,200.137115 153.410141,199.389008 
	C150.175705,198.898438 146.792236,199.894928 143.476517,198.702408 
	C143.286926,195.476501 144.984451,192.867889 146.029587,190.143463 
	C166.405380,137.028214 186.919800,83.966026 207.188736,30.810188 
	C208.953827,26.181133 211.148453,23.907097 216.181778,24.611469 
	C219.410370,25.063284 222.772171,24.157244 226.720673,25.460207 
	C210.549072,67.370049 194.463791,109.056160 178.247711,151.105286 
z"/>
<path fill="#000000" opacity="1.000000" stroke="none" 
	d="
M282.980408,92.070686 
	C269.229797,85.218140 255.818146,78.523834 242.395142,71.852341 
	C234.404388,67.880783 232.692398,63.060299 236.223907,54.159657 
	C238.503143,54.044136 240.267334,55.429581 242.143692,56.388557 
	C270.916107,71.093758 299.649384,85.875809 328.460022,100.505646 
	C331.700897,102.151344 333.309601,104.129471 333.067413,107.848312 
	C332.829407,111.502800 333.272766,114.924988 328.981506,117.101105 
	C299.127228,132.240372 269.379944,147.590668 239.585892,162.848892 
	C238.579590,163.364273 237.440598,163.620560 236.385498,163.989899 
	C232.592682,156.102081 234.495331,150.090790 241.817352,146.432190 
	C265.062042,134.817535 288.314941,123.219360 311.546570,111.578697 
	C312.973114,110.863884 314.699432,110.516396 315.879303,108.501877 
	C304.967285,103.052231 294.140930,97.645378 282.980408,92.070686 
z"/>
<path fill="#000000" opacity="1.000000" stroke="none" 
	d="
M103.419327,131.501007 
	C113.729385,136.659256 123.593513,141.895447 133.730423,146.535721 
	C138.242401,148.601135 140.069061,151.304367 139.417297,156.131348 
	C139.088806,158.564117 139.359940,161.077850 139.359940,163.418869 
	C137.132217,164.471252 135.808990,163.081665 134.440964,162.378967 
	C105.269333,147.394913 76.157249,132.294434 46.936340,117.407463 
	C43.136684,115.471672 41.720924,113.107857 41.701900,108.880852 
	C41.682674,104.608063 43.229675,102.242264 46.974751,100.335663 
	C76.202118,85.456177 105.344711,70.410210 134.526596,55.441204 
	C135.803619,54.786152 137.208130,54.379654 138.840012,53.746040 
	C139.894348,58.279961 139.371979,62.408199 139.250244,66.492584 
	C139.170090,69.181854 136.623077,69.699875 134.761017,70.637375 
	C111.418396,82.389771 88.053398,94.097710 64.704933,105.838501 
	C63.089451,106.650856 61.276501,107.180527 59.520973,109.395538 
	C74.154610,116.765800 88.619530,124.051094 103.419327,131.501007 
z"/>
</svg>