<svg version="1.1" id="Layer_1" xmlns="http://www.w3.org/2000/svg" xmlns:xlink="http://www.w3.org/1999/xlink" x="0px" y="0px"
	 width="100%" viewBox="0 0 711 240" enable-background="new 0 0 711 240" xml:space="preserve">
<path fill="#FFFFFF" opacity="0.000000" stroke="none" 
	d="
M712.000000,182.000000 
	C712.000000,201.630295 712.000000,221.260605 712.000000,241.000000 
	C652.979126,241.000000 593.958252,241.000000 534.378052,240.538971 
	C533.818848,185.494354 533.818848,130.910767 533.818848,76.445084 
	C476.353363,76.445084 419.584137,76.445084 362.430328,76.445084 
	C362.430328,78.474274 362.430328,80.277565 362.430328,82.080856 
	C362.430328,133.247192 362.434723,184.413513 362.412201,235.579834 
	C362.411407,237.386627 362.143433,239.193283 362.000000,241.000000 
	C241.666656,241.000000 121.333321,241.000000 1.000000,241.000000 
	C1.000000,232.251022 1.000000,223.594177 1.457165,214.357758 
	C58.492321,213.778183 115.070312,213.778183 171.690979,213.778183 
	C171.690979,156.556793 171.690979,99.865341 171.690979,42.999706 
	C165.069199,42.999706 158.755295,42.995163 152.441391,43.000427 
	C102.306435,43.042198 52.171478,43.085831 1.783471,43.047768 
	C1.353615,42.977764 1.176807,42.988880 1.000000,43.000000 
	C1.000000,29.027641 1.000000,15.055284 1.000000,1.000000 
	C60.687538,1.000000 120.375107,1.000000 180.472748,1.263619 
	C180.941345,1.697487 180.999893,1.867736 180.981720,2.498671 
	C180.904968,59.390495 180.904968,115.821632 180.904968,172.336746 
	C238.176788,172.336746 295.014832,172.336746 352.041901,172.336746 
	C352.041901,150.645248 352.059601,129.327286 352.037903,108.009354 
	C352.002014,72.695030 351.940765,37.380733 351.963165,1.804501 
	C352.024078,1.361718 352.012054,1.180859 352.000000,1.000000 
	C472.000000,1.000000 592.000000,1.000000 712.000000,1.000000 
	C712.000000,4.034547 712.000000,7.030709 711.531372,10.512690 
	C654.978455,10.998507 598.894226,10.998507 542.576050,10.998507 
	C542.576050,68.120415 542.576050,124.827400 542.576050,182.000000 
	C599.182373,182.000000 655.591187,182.000000 712.000000,182.000000 
z"/>
<path fill="#020202" opacity="1.000000" stroke="none" 
	d="
M362.468658,241.000000 
	C362.143433,239.193283 362.411407,237.386627 362.412201,235.579834 
	C362.434723,184.413513 362.430328,133.247192 362.430328,82.080856 
	C362.430328,80.277565 362.430328,78.474274 362.430328,76.445084 
	C419.584137,76.445084 476.353363,76.445084 533.818848,76.445084 
	C533.818848,130.910767 533.818848,185.494354 533.909424,240.538971 
	C476.979095,241.000000 419.958221,241.000000 362.468658,241.000000 
M445.652039,205.012131 
	C448.606689,205.012131 451.561371,205.012131 455.056152,205.012131 
	C455.056152,181.724060 455.056152,158.873978 455.056152,135.744141 
	C463.885773,135.744141 472.161072,135.744141 480.648376,135.744141 
	C480.648376,131.404251 480.648376,127.356491 480.648376,123.361824 
	C458.525391,123.361824 436.672119,123.361824 415.010864,123.361824 
	C415.010864,127.669952 415.010864,131.601242 415.010864,135.931610 
	C423.560089,135.931610 431.817963,135.931610 440.469818,135.931610 
	C440.469818,159.077896 440.469818,181.812057 440.469818,204.785828 
	C442.142181,204.874969 443.428406,204.943512 445.652039,205.012131 
z"/>
<path fill="#010101" opacity="1.000000" stroke="none" 
	d="
M712.000000,181.531342 
	C655.591187,182.000000 599.182373,182.000000 542.576050,182.000000 
	C542.576050,124.827400 542.576050,68.120415 542.576050,10.998507 
	C598.894226,10.998507 654.978455,10.998507 711.531372,10.999254 
	C712.000000,67.687561 712.000000,124.375122 712.000000,181.531342 
M588.307129,129.794907 
	C587.090393,132.660599 585.873596,135.526306 584.394653,139.009521 
	C588.785889,139.009521 592.577209,139.289398 596.290771,138.873795 
	C597.807251,138.704071 599.755554,137.340836 600.466125,135.977798 
	C602.534058,132.010925 603.893250,127.676453 605.930725,123.690804 
	C606.575256,122.430031 608.468506,121.043953 609.811096,121.022530 
	C622.447388,120.820938 635.088135,120.902748 647.831360,120.902748 
	C648.777405,122.991966 649.700012,124.935852 650.545898,126.912560 
	C655.888489,139.397095 655.882996,139.401581 669.733887,138.942551 
	C669.995850,138.933868 670.249939,138.688904 670.743835,138.430771 
	C670.179443,137.080780 669.632385,135.718460 669.044434,134.374084 
	C659.122131,111.688705 648.862915,89.141739 639.464539,66.241463 
	C636.526917,59.083786 633.129028,55.631733 625.142212,56.809898 
	C621.856384,57.294609 619.990173,57.825809 618.565430,61.118626 
	C608.733521,83.842354 598.648132,106.456421 588.307129,129.794907 
z"/>
<path fill="#000000" opacity="1.000000" stroke="none" 
	d="
M2.036520,43.128891 
	C52.171478,43.085831 102.306435,43.042198 152.441391,43.000427 
	C158.755295,42.995163 165.069199,42.999706 171.690979,42.999706 
	C171.690979,99.865341 171.690979,156.556793 171.690979,213.778183 
	C115.070312,213.778183 58.492321,213.778183 1.457165,213.889099 
	C1.000000,213.555557 1.000000,213.111099 1.282666,212.030365 
	C1.678912,204.750610 1.882344,198.107254 1.891735,191.463654 
	C1.961627,142.018753 1.993036,92.573814 2.036520,43.128891 
M41.239429,124.935730 
	C40.409901,135.018143 41.822376,144.631378 47.911316,153.002457 
	C59.392124,168.786316 75.096458,173.888824 93.976410,170.973206 
	C122.973732,166.495148 138.321152,131.180435 121.629997,107.179031 
	C111.502602,92.616112 92.721703,85.293022 74.918053,89.489067 
	C56.511909,93.827103 44.774002,104.982132 41.239429,124.935730 
z"/>
<path fill="#636363" opacity="1.000000" stroke="none" 
	d="
M351.531342,1.000000 
	C352.012054,1.180859 352.024078,1.361718 351.502258,1.777826 
	C294.331757,2.021379 237.695114,2.029682 181.058456,2.037985 
	C180.999893,1.867736 180.941345,1.697487 180.941406,1.263619 
	C237.687561,1.000000 294.375122,1.000000 351.531342,1.000000 
z"/>
<path fill="#363636" opacity="1.000000" stroke="none" 
	d="
M1.783471,43.047768 
	C1.993036,92.573814 1.961627,142.018753 1.891735,191.463654 
	C1.882344,198.107254 1.678912,204.750610 1.282666,211.697037 
	C1.000000,155.979111 1.000000,99.958214 1.000000,43.468658 
	C1.176807,42.988880 1.353615,42.977764 1.783471,43.047768 
z"/>
<path fill="#010101" opacity="1.000000" stroke="none" 
	d="
M180.981720,2.498671 
	C237.695114,2.029682 294.331757,2.021379 351.429321,2.039750 
	C351.940765,37.380733 352.002014,72.695030 352.037903,108.009354 
	C352.059601,129.327286 352.041901,150.645248 352.041901,172.336746 
	C295.014832,172.336746 238.176788,172.336746 180.904968,172.336746 
	C180.904968,115.821632 180.904968,59.390495 180.981720,2.498671 
M232.296249,70.499947 
	C232.296249,90.264252 232.296249,110.028557 232.296249,129.789642 
	C237.365326,129.789642 241.809311,129.789642 246.995926,129.789642 
	C246.995926,110.993652 246.995926,92.408455 246.995926,72.558830 
	C261.087860,91.510719 274.269287,109.292397 287.555908,126.995171 
	C288.529388,128.292252 290.190887,129.724228 291.657257,129.874283 
	C295.571838,130.274872 299.554443,130.010635 303.693634,130.010635 
	C303.693634,102.515182 303.693634,75.457687 303.693634,48.193871 
	C299.030457,48.193871 294.586365,48.193871 289.706909,48.193871 
	C289.706909,57.553139 289.706940,66.851906 289.706940,76.150681 
	C289.706940,85.478127 289.706909,94.805573 289.706909,104.133018 
	C287.287720,102.647713 285.973297,101.003090 284.715057,99.316559 
	C272.769501,83.305275 260.857147,67.269073 248.851730,51.302864 
	C247.846298,49.965725 246.316788,48.295021 244.886307,48.143539 
	C240.831940,47.714207 236.702545,47.993137 232.296249,47.993137 
	C232.296249,55.561512 232.296249,62.530781 232.296249,70.499947 
z"/>
<path fill="#F7F7F7" opacity="1.000000" stroke="none" 
	d="
M445.183350,205.012100 
	C443.428406,204.943512 442.142181,204.874969 440.469818,204.785828 
	C440.469818,181.812057 440.469818,159.077896 440.469818,135.931610 
	C431.817963,135.931610 423.560089,135.931610 415.010864,135.931610 
	C415.010864,131.601242 415.010864,127.669952 415.010864,123.361824 
	C436.672119,123.361824 458.525391,123.361824 480.648376,123.361824 
	C480.648376,127.356491 480.648376,131.404251 480.648376,135.744141 
	C472.161072,135.744141 463.885773,135.744141 455.056152,135.744141 
	C455.056152,158.873978 455.056152,181.724060 455.056152,205.012131 
	C451.561371,205.012131 448.606689,205.012131 445.183350,205.012100 
z"/>
<path fill="#F9F9F9" opacity="1.000000" stroke="none" 
	d="
M588.475708,129.450317 
	C598.648132,106.456421 608.733521,83.842354 618.565430,61.118626 
	C619.990173,57.825809 621.856384,57.294609 625.142212,56.809898 
	C633.129028,55.631733 636.526917,59.083786 639.464539,66.241463 
	C648.862915,89.141739 659.122131,111.688705 669.044434,134.374084 
	C669.632385,135.718460 670.179443,137.080780 670.743835,138.430771 
	C670.249939,138.688904 669.995850,138.933868 669.733887,138.942551 
	C655.882996,139.401581 655.888489,139.397095 650.545898,126.912560 
	C649.700012,124.935852 648.777405,122.991966 647.831360,120.902748 
	C635.088135,120.902748 622.447388,120.820938 609.811096,121.022530 
	C608.468506,121.043953 606.575256,122.430031 605.930725,123.690804 
	C603.893250,127.676453 602.534058,132.010925 600.466125,135.977798 
	C599.755554,137.340836 597.807251,138.704071 596.290771,138.873795 
	C592.577209,139.289398 588.785889,139.009521 584.394653,139.009521 
	C585.873596,135.526306 587.090393,132.660599 588.475708,129.450317 
M620.163086,89.686920 
	C617.678650,95.602669 615.194214,101.518410 612.610352,107.670898 
	C622.699707,107.670898 632.290649,107.670898 642.335876,107.670898 
	C637.336426,95.920601 632.535828,84.637825 627.432739,72.643990 
	C624.890808,78.639946 622.694336,83.820976 620.163086,89.686920 
z"/>
<path fill="#F9F9F9" opacity="1.000000" stroke="none" 
	d="
M41.299889,124.491898 
	C44.774002,104.982132 56.511909,93.827103 74.918053,89.489067 
	C92.721703,85.293022 111.502602,92.616112 121.629997,107.179031 
	C138.321152,131.180435 122.973732,166.495148 93.976410,170.973206 
	C75.096458,173.888824 59.392124,168.786316 47.911316,153.002457 
	C41.822376,144.631378 40.409901,135.018143 41.299889,124.491898 
M58.167095,117.972336 
	C57.719929,119.222893 57.206455,120.454147 56.835918,121.727013 
	C53.412014,133.488571 57.231747,145.206451 66.974495,152.911057 
	C76.003891,160.051514 88.765724,161.067535 98.780937,155.443314 
	C109.375839,149.493546 114.955147,138.271835 113.380287,126.079498 
	C111.869705,114.384903 102.414742,104.094154 91.240181,101.982300 
	C77.340034,99.355331 65.801819,104.771187 58.167095,117.972336 
z"/>
<path fill="#F8F8F8" opacity="1.000000" stroke="none" 
	d="
M232.296249,70.000000 
	C232.296249,62.530781 232.296249,55.561512 232.296249,47.993137 
	C236.702545,47.993137 240.831940,47.714207 244.886307,48.143539 
	C246.316788,48.295021 247.846298,49.965725 248.851730,51.302864 
	C260.857147,67.269073 272.769501,83.305275 284.715057,99.316559 
	C285.973297,101.003090 287.287720,102.647713 289.706909,104.133018 
	C289.706909,94.805573 289.706940,85.478127 289.706940,76.150681 
	C289.706940,66.851906 289.706909,57.553139 289.706909,48.193871 
	C294.586365,48.193871 299.030457,48.193871 303.693634,48.193871 
	C303.693634,75.457687 303.693634,102.515182 303.693634,130.010635 
	C299.554443,130.010635 295.571838,130.274872 291.657257,129.874283 
	C290.190887,129.724228 288.529388,128.292252 287.555908,126.995171 
	C274.269287,109.292397 261.087860,91.510719 246.995926,72.558830 
	C246.995926,92.408455 246.995926,110.993652 246.995926,129.789642 
	C241.809311,129.789642 237.365326,129.789642 232.296249,129.789642 
	C232.296249,110.028557 232.296249,90.264252 232.296249,70.000000 
z"/>
<path fill="#050505" opacity="1.000000" stroke="none" 
	d="
M620.330444,89.344460 
	C622.694336,83.820976 624.890808,78.639946 627.432739,72.643990 
	C632.535828,84.637825 637.336426,95.920601 642.335876,107.670898 
	C632.290649,107.670898 622.699707,107.670898 612.610352,107.670898 
	C615.194214,101.518410 617.678650,95.602669 620.330444,89.344460 
z"/>
<path fill="#020202" opacity="1.000000" stroke="none" 
	d="
M58.367664,117.645157 
	C65.801819,104.771187 77.340034,99.355331 91.240181,101.982300 
	C102.414742,104.094154 111.869705,114.384903 113.380287,126.079498 
	C114.955147,138.271835 109.375839,149.493546 98.780937,155.443314 
	C88.765724,161.067535 76.003891,160.051514 66.974495,152.911057 
	C57.231747,145.206451 53.412014,133.488571 56.835918,121.727013 
	C57.206455,120.454147 57.719929,119.222893 58.367664,117.645157 
z"/>
</svg>